<?xml version="1.0" encoding="UTF-8" standalone="no"?>
<!-- Created with Inkscape (http://www.inkscape.org/) -->

<svg
   xmlns:dc="http://purl.org/dc/elements/1.1/"
   xmlns:cc="http://creativecommons.org/ns#"
   xmlns:rdf="http://www.w3.org/1999/02/22-rdf-syntax-ns#"
   xmlns:svg="http://www.w3.org/2000/svg"
   xmlns="http://www.w3.org/2000/svg"
   xmlns:sodipodi="http://sodipodi.sourceforge.net/DTD/sodipodi-0.dtd"
   xmlns:inkscape="http://www.inkscape.org/namespaces/inkscape"
   width="123mm"
   height="123mm"
   viewBox="0 0 123 123"
   version="1.1"
   id="svg8"
   inkscape:version="0.92.3 (2405546, 2018-03-11)"
   sodipodi:docname="recoon2.svg">
  <defs
     id="defs2" />
  <sodipodi:namedview
     id="base"
     pagecolor="#ffffff"
     bordercolor="#666666"
     borderopacity="1.0"
     inkscape:pageopacity="0.0"
     inkscape:pageshadow="2"
     inkscape:zoom="1.4"
     inkscape:cx="207.65692"
     inkscape:cy="191.58008"
     inkscape:document-units="mm"
     inkscape:current-layer="layer1"
     showgrid="false"
     inkscape:window-width="1920"
     inkscape:window-height="1017"
     inkscape:window-x="-8"
     inkscape:window-y="-8"
     inkscape:window-maximized="1" />
  <metadata
     id="metadata5">
    <rdf:RDF>
      <cc:Work
         rdf:about="">
        <dc:format>image/svg+xml</dc:format>
        <dc:type
           rdf:resource="http://purl.org/dc/dcmitype/StillImage" />
        <dc:title></dc:title>
      </cc:Work>
    </rdf:RDF>
  </metadata>
  <g
     inkscape:label="Ebene 1"
     inkscape:groupmode="layer"
     id="layer1"
     transform="translate(-43.739091,-62.992492)">
    <path
       style="fill:#000000;stroke-width:0.35277781"
       d="m 101.24187,171.32592 c -1.455205,-0.56297 -4.788956,-1.75865 -7.408331,-2.65707 -8.445878,-2.89686 -25.755818,-9.67492 -32.10278,-12.5705 -6.254147,-2.85324 -12.268551,-5.48172 -15.963196,-6.97641 -1.11566,-0.45134 -2.028472,-0.93017 -2.028472,-1.06407 0,-0.27428 8.800534,-2.80172 9.755591,-2.80172 1.013141,0 0.159803,-0.49698 -3.670174,-2.13749 -1.988785,-0.85186 -3.615973,-1.69525 -3.615973,-1.8742 0,-0.17895 0.541695,-0.98643 1.203765,-1.7944 0.662071,-0.80798 3.259864,-4.51086 5.772873,-8.22864 l 4.569108,-6.7596 0.259802,-24.08687 c 0.142891,-13.247773 0.314313,-24.144102 0.380937,-24.214055 0.06662,-0.06995 1.591365,0.294544 3.388314,0.809994 1.947341,0.558589 6.160223,2.353605 10.428725,4.443449 l 7.161545,3.506266 2.55566,-0.537486 c 1.405615,-0.295618 6.893761,-1.652741 12.195881,-3.015829 5.30212,-1.363088 10.223375,-2.482801 10.936115,-2.488249 0.71274,-0.0055 7.07553,1.440495 14.13955,3.213208 l 12.84365,3.223115 6.75691,-3.345931 c 7.51061,-3.719149 9.08515,-4.387745 12.79953,-5.43502 l 2.55764,-0.72113 0.0161,11.173515 c 0.009,6.14543 0.081,17.328553 0.16037,24.851393 l 0.14429,13.67788 2.00203,3.40174 c 1.10112,1.87096 3.49852,5.61562 5.32755,8.32148 1.82903,2.70585 3.27689,4.94876 3.21746,4.98423 -0.0594,0.0355 -1.29867,0.40519 -2.75388,0.8216 -1.45521,0.41641 -3.26915,1.0187 -4.03098,1.33842 l -1.38515,0.5813 4.82473,1.62616 c 2.6536,0.89439 4.82473,1.72853 4.82473,1.85364 0,0.12511 -2.57969,1.27201 -5.73264,2.54865 -3.15295,1.27665 -8.98701,3.69378 -12.96458,5.37138 -8.76163,3.69537 -11.49548,4.74478 -25.75278,9.88548 -6.11188,2.20374 -12.42676,4.49349 -14.03308,5.08834 -1.60631,0.59485 -3.19381,1.06568 -3.52777,1.04628 -0.33397,-0.0194 -1.79783,-0.49588 -3.25304,-1.05885 z m 6.18295,-4.03838 c 1.35306,-1.07662 4.43439,-3.72674 6.84741,-5.88914 l 4.3873,-3.93164 -2.78346,-1.3428 c -1.53089,-0.73855 -3.03255,-1.34281 -3.33701,-1.34281 -0.30445,0 -1.81994,0.49334 -3.36773,1.09631 -4.71776,1.83789 -4.36266,1.8254 -8.29782,0.29182 l -3.549196,-1.38317 -2.169227,0.73077 c -2.527399,0.85141 -4.15519,1.6452 -4.116405,2.00735 0.01506,0.14054 1.619451,1.68428 3.565334,3.43053 1.945887,1.74625 3.71951,3.34228 3.941389,3.54673 1.102904,1.0163 5.949815,4.74355 6.168505,4.74355 0.13795,0 1.35785,-0.88088 2.71091,-1.9575 z m -16.060726,-3.72448 c -2.249152,-2.0098 -4.272315,-3.38554 -8.087272,-5.49929 -3.60293,-1.99627 -3.612543,-2.05253 -0.467589,-2.73654 0.63059,-0.13715 1.141465,-0.43519 1.135277,-0.66231 -0.0062,-0.22711 -1.173582,-3.50781 -2.594208,-7.29042 l -2.582958,-6.87749 -3.31482,-1.97619 c -8.347232,-4.97636 -17.383551,-10.19801 -17.648151,-10.19801 -0.297298,0 -4.747393,6.46702 -6.170553,8.96724 l -0.786945,1.38251 2.355136,1.76715 c 5.4242,4.06998 14.412889,12.51079 16.071438,15.09184 0.464163,0.72234 1.390565,1.17843 4.199343,2.06744 3.536763,1.11942 13.361046,4.84536 17.185747,6.51783 1.067153,0.46665 2.019653,0.85213 2.116667,0.85662 0.09701,0.004 -0.537986,-0.63017 -1.411112,-1.41038 z m 34.979356,-2.5611 c 7.21294,-2.69969 12.36335,-4.45692 13.06316,-4.45692 0.26941,0 1.00554,-0.67469 1.63584,-1.49931 1.917,-2.50797 7.02518,-7.52879 9.70399,-9.53802 1.39159,-1.04375 3.91829,-2.91641 5.61489,-4.16145 1.6966,-1.24505 3.08566,-2.42749 3.0868,-2.62765 0.001,-0.20016 -0.69275,-1.54953 -1.54199,-2.99861 -0.84924,-1.44908 -2.20562,-3.78563 -3.01417,-5.19233 -0.80856,-1.4067 -1.61389,-2.55764 -1.78964,-2.55764 -0.17574,0 -1.00217,0.45438 -1.83652,1.00972 -2.6196,1.74363 -19.20767,11.33751 -19.60284,11.33751 -0.20715,0 -0.62477,0.67468 -0.92805,1.4993 -0.30329,0.82462 -1.49321,4.03931 -2.64429,7.14375 -2.27478,6.13512 -2.2772,5.83182 0.0505,6.33156 0.53358,0.11455 0.97014,0.35011 0.97014,0.52346 0,0.17335 -1.23031,1.02587 -2.73403,1.8945 -3.00901,1.73816 -6.20371,4.03851 -8.37847,6.03292 l -1.41111,1.2941 1.76389,-0.85193 c 0.97014,-0.46855 4.56647,-1.90089 7.99185,-3.18296 z m -18.72225,-7.73182 c 4.17465,-1.84797 4.51393,-2.07857 11.6765,-7.93617 3.74825,-3.06535 7.68813,-6.2232 8.75529,-7.01744 1.72894,-1.28678 9.31858,-5.62198 17.55034,-10.02476 1.60054,-0.85605 2.91023,-1.64072 2.91042,-1.7437 1.9e-4,-0.10298 -0.43621,-0.36461 -0.96979,-0.58139 -8.49831,-3.45274 -9.07746,-3.60866 -10.87101,-2.92676 -1.34116,0.50991 -16.11367,4.22456 -16.80033,4.22456 -0.37581,0 -1.55965,1.92374 -3.51335,5.70923 -1.62061,3.14008 -3.12326,5.76544 -3.33923,5.83413 -0.61335,0.19509 -1.3095,-1.886 -1.05558,-3.15559 0.12463,-0.62314 1.00545,-2.96376 1.95738,-5.20136 0.95193,-2.23759 1.97276,-4.66367 2.26852,-5.39127 0.37748,-0.92867 0.75507,-1.32292 1.26701,-1.32292 0.40111,0 3.94139,-0.65963 7.86731,-1.46585 3.92592,-0.80623 8.16095,-1.6418 9.41119,-1.85684 l 2.27316,-0.39099 -1.56761,-1.4347 c -12.64447,-11.57241 -12.99652,-11.9593 -9.58196,-10.53062 1.96468,0.82205 12.76974,4.03733 13.56758,4.03733 0.4017,0 2.22272,1.48551 4.32456,3.52778 1.99687,1.94028 3.79332,3.52778 3.99211,3.52778 0.42401,0 0.42276,0.012 2.01298,-19.402783 0.67543,-8.24618 1.32766,-15.905869 1.44941,-17.021529 0.12174,-1.11566 0.14489,-2.028473 0.0514,-2.028473 -0.0934,0 -1.82052,0.774745 -3.83792,1.721655 -2.01741,0.946909 -4.62051,2.152882 -5.78468,2.679939 -1.16417,0.527057 -4.63592,2.151538 -7.715,3.609948 -3.07909,1.45842 -5.93659,2.65791 -6.35,2.66554 -0.41342,0.008 -4.32354,-0.94167 -8.68917,-2.10957 -4.36562,-1.1679 -9.16846,-2.41192 -10.67298,-2.76449 l -2.73548,-0.641045 -4.32007,1.124645 c -2.376045,0.61855 -6.38383,1.68604 -8.906191,2.37219 -8.620919,2.34514 -7.43136,2.36195 -12.700001,-0.17949 -7.324493,-3.533131 -17.862622,-8.479322 -18.065653,-8.479322 -0.102469,0 -0.08697,1.468438 0.03445,3.263195 0.121413,1.794757 0.462798,7.231947 0.758631,12.082637 0.700918,11.492733 1.534258,22.832063 1.689353,22.987153 0.06752,0.0675 1.70968,-1.52216 3.649239,-3.53263 2.933615,-3.04086 3.758727,-3.69889 4.908005,-3.91411 0.759845,-0.1423 4.075051,-1.12242 7.367127,-2.17805 3.292077,-1.05563 6.21579,-1.87463 6.497144,-1.82001 0.297078,0.0577 -2.101536,2.62651 -5.721008,6.12699 -3.427907,3.31522 -6.232561,6.13303 -6.232561,6.2618 0,0.12878 0.357188,0.2381 0.79375,0.24295 0.795091,0.009 17.882484,3.72967 18.083017,3.93765 0.24772,0.25693 4.70105,10.45334 5.085757,11.64445 0.356761,1.10457 0.330878,1.44092 -0.169675,2.20486 -0.324863,0.4958 -0.691466,0.89812 -0.81467,0.89403 -0.267127,-0.009 -3.394312,-5.53834 -5.041523,-8.91441 -1.346955,-2.76068 0.08577,-2.13063 -12.161115,-5.34788 -4.099495,-1.07693 -7.731064,-1.95806 -8.070152,-1.95806 -0.601152,0 -4.884027,1.62955 -8.643075,3.28852 l -1.871194,0.82581 3.141245,1.60108 c 1.727684,0.88059 6.162052,3.33917 9.854151,5.46351 6.316913,3.63458 7.187932,4.2703 14.765628,10.77671 7.619041,6.54191 8.235961,6.99119 11.455151,8.34236 1.87133,0.78545 3.57437,1.43347 3.78452,1.44005 0.21016,0.007 1.55953,-0.50924 2.99862,-1.14627 z m -4.33821,-20.8142 c -1.87122,-3.81923 -3.848768,-8.98378 -4.840409,-12.64118 -0.559827,-2.06477 -5.460295,-22.556833 -6.211891,-25.975983 -0.09597,-0.43656 -0.01471,-0.79375 0.18059,-0.79375 0.847951,0 4.059954,6.31194 9.38285,18.438353 3.0136,6.86547 3.19233,7.21521 3.5199,6.88765 0.10538,-0.10538 1.78408,-3.82278 3.73044,-8.26088 3.60124,-8.21154 7.96623,-17.065123 8.41344,-17.065123 0.60395,0 0.59345,0.58654 -0.065,3.63417 -1.40118,6.484843 -5.90181,23.784763 -6.99321,26.881113 -1.21989,3.46089 -4.85436,11.7331 -5.26712,11.9882 -0.14115,0.0872 -0.97345,-1.30442 -1.84955,-3.09257 z"
       id="path826"
       inkscape:connector-curvature="0"
       sodipodi:nodetypes="csscsscscscscsscsscscssccccsccsccssccsccccscccssccccccssssscscssscsccccscsccccscscscccscccccccsccsccscccccscccscscsscscsccsccccsscscccsccscccccscsscccscccccscssccscsccc" />
  </g>
</svg>
